<svg width="94" height="45" viewBox="0 0 94 45" fill="none" xmlns="http://www.w3.org/2000/svg">
<path fill-rule="evenodd" clip-rule="evenodd" d="M17.8966 29.5556L17.8972 29.5589L16.0795 29.8985C14.4993 31.6843 12.8219 31.5321 12.0246 30.6376L9.26817 31.077C7.6818 34.6319 6.84885 35.2671 5.55291 31.836L2.07735 32.5951L0 36.9495L6.55164 39.9457L20.5737 36.9495C20.5737 36.9495 25.5274 45.7782 32.1589 44.0205C38.7905 42.2627 37.3124 34.3528 37.3124 34.3528L48.2983 32.1157C50.5288 31.8258 50.1301 34.6049 47.2996 38.2279C46.3688 39.4193 43.6243 41.2241 43.6243 41.2241L44.2635 43.1816L54.9698 41.5436L54.051 37.5887L52.9324 36.9495V31.4366L58.0459 30.7175V32.7149C57.92 33.9248 58.2186 34.2748 59.3642 34.3528L64.8772 33.3941L66.9146 41.5436C67.6894 43.64 68.7009 44.4466 72.5474 44.5798C79.0981 44.6022 82.8916 44.2937 90.4845 41.5436C92.9848 40.5678 93.7454 39.4779 94 36.59C94 36.59 94 29.5589 92.402 19.5317C90.8041 9.50455 85.8504 1.315 85.8504 1.315C84.4432 0.0237868 83.4807 -0.131679 81.6158 0.0765852C72.7148 0.5527 68.2082 2.03051 60.8423 6.34858C59.2304 7.49862 59.0204 8.32703 59.3243 9.98394L61.2019 17.0949L54.9698 19.2122L55.3693 21.8088L50.4955 22.8076C50.4955 22.8076 43.065 12.261 36.1538 15.3371C29.2427 18.4132 31.2002 26.8824 31.2002 26.8824L22.8109 28.4803C20.8804 28.892 21.247 27.8369 22.2516 25.6439C22.7651 24.4506 23.8169 23.4858 26.4063 21.4892L25.6473 19.7714L15.9796 22.5279L16.5389 24.6053L17.8972 25.6439C17.4854 27.267 17.6332 28.0899 17.8966 29.5556ZM87.8478 22.2882C87.8478 25.1123 85.5584 27.4016 82.7344 27.4016C79.9103 27.4016 77.6209 25.1123 77.6209 22.2882C77.6209 19.4641 79.9103 17.1747 82.7344 17.1747C85.5584 17.1747 87.8478 19.4641 87.8478 22.2882ZM37.1526 26.3631L46.6604 24.3257C46.6604 24.3257 44.9826 19.8514 40.4284 20.7702C35.8742 21.689 37.1526 26.3631 37.1526 26.3631ZM22.6511 37.1892L29.9618 35.5913C30.8511 35.3496 30.8965 35.8388 30.9205 36.7898C30.9205 36.7898 30.7208 39.6661 27.1254 39.7859C23.53 39.9058 22.6511 37.1892 22.6511 37.1892Z" fill="url(#paint0_linear)"/>
<defs>
<linearGradient id="paint0_linear" x1="96.1173" y1="39.6261" x2="-1.11857" y2="32.675" gradientUnits="userSpaceOnUse">
<stop stop-color="#3D361A"/>
<stop offset="0.0982288" stop-color="#C2AE30"/>
<stop offset="0.179369" stop-color="#F9EA8C"/>
<stop offset="0.2898" stop-color="#FDF9CD"/>
<stop offset="0.405403" stop-color="#F9EA8C"/>
<stop offset="0.523926" stop-color="#F9EA8C"/>
<stop offset="0.614874" stop-color="#EADD76"/>
<stop offset="0.693362" stop-color="#FDF9CD"/>
<stop offset="0.784043" stop-color="#EADD76"/>
<stop offset="0.874209" stop-color="#C2AE30"/>
<stop offset="0.994792" stop-color="#3D361A"/>
</linearGradient>
</defs>
</svg>
